#N canvas 122 104 1048 302 12;
#N canvas 575 359 1201 705 oscreceiver 0;
#X obj 104 173 tgl 27 0 ddosc-printrcv empty print 44 11 0 15 -262144
-1 -1 0 1;
#X obj 114 259 nbx 7 20 -1e+37 1e+37 0 0 ddosc-inport empty osc-in-port
0 -8 0 17 -262144 -1 -1 5000 256;
#X obj 44 20 loadbang;
#X msg 44 45 5000;
#X obj 198 124 hradio 20 1 0 2 ddosc-udptcp empty udp/tcp 0 -8 0 12
-262144 -1 -1 0;
#X symbolatom 128 293 15 0 0 0 ip - ddosc-ip;
#X msg 212 70 0;
#X msg 111 47 symbol 127.0.0.1;
#N canvas 648 126 900 736 ddosc-guimanager 0;
#X obj 94 484 netreceive -u -b;
#X obj 168 206 list prepend;
#X obj 183 274 route 0 1, f 35;
#X obj 306 483 netreceive -b;
#X obj 259 166 r ddosc-udptcp;
#X obj 178 96 list append;
#X obj 175 26 r ddosc-inport;
#X obj 295 24 r ddosc-ip;
#X obj 139 150 list append;
#X obj 117 65 r dd-rcvosctgl;
#X msg 117 404 listen 0;
#X msg 304 424 listen 0;
#X obj 183 317 route 0 1;
#X obj 318 312 route 0 1;
#X obj 194 619 outlet;
#X msg 214 401 listen \$1;
#X obj 220 353 t l b;
#X obj 380 379 list prepend listen;
#X obj 380 404 list trim;
#X obj 345 346 t l b;
#X connect 0 0 14 0;
#X connect 1 0 2 0;
#X connect 2 0 12 0;
#X connect 2 1 13 0;
#X connect 3 0 14 0;
#X connect 4 0 1 1;
#X connect 5 0 8 1;
#X connect 6 0 5 0;
#X connect 7 0 5 1;
#X connect 8 0 1 0;
#X connect 9 0 8 0;
#X connect 10 0 0 0;
#X connect 10 0 3 0;
#X connect 11 0 3 0;
#X connect 11 0 0 0;
#X connect 12 0 10 0;
#X connect 12 1 16 0;
#X connect 13 0 11 0;
#X connect 13 1 19 0;
#X connect 15 0 0 0;
#X connect 16 0 15 0;
#X connect 16 1 11 0;
#X connect 17 0 18 0;
#X connect 18 0 3 0;
#X connect 19 0 17 0;
#X connect 19 1 10 0;
#X restore 120 356 pd ddosc-guimanager;
#X obj 133 386 oscparse;
#X obj 32 560 s ddosc-frame;
#X obj 396 600 s ddosc-ppg-ir;
#X obj 466 634 s ddosc-ppg-red;
#X obj 488 668 s ddosc-ppg-grn;
#X obj 532 558 s ddosc-eda;
#X obj 558 599 s ddosc-temp;
#X obj 599 641 s ddosc-therm;
#X obj 620 675 s ddosc-humidity;
#X obj 631 555 s ddosc-acc-x;
#X obj 662 597 s ddosc-acc-y;
#X obj 728 642 s ddosc-acc-z;
#X obj 742 558 s ddosc-gyro-x;
#X obj 801 608 s ddosc-gyro-y;
#X obj 844 645 s ddosc-gyro-z;
#X obj 859 561 s ddosc-mag-x;
#X obj 921 597 s ddosc-mag-y;
#X obj 945 628 s ddosc-mag-z;
#X obj 104 140 tgl 27 0 dd-rcvosctgl empty rcv-osc 44 11 0 15 -262144
-1 -1 1 1;
#X obj 408 362 r ddosc-printrcv;
#X obj 279 429 spigot;
#X obj 279 454 print;
#N canvas 748 146 828 832 ddosc-deltas 0;
#X obj 71 318 r ddosc-gyro-x;
#X obj 71 343 t f f;
#X obj 98 434 - 0;
#X obj 98 459 abs;
#X obj 98 484 s ddosc-gyro-x-delta;
#X obj 238 345 t f f;
#X obj 265 436 - 0;
#X obj 265 461 abs;
#X obj 238 320 r ddosc-gyro-y;
#X obj 265 486 s ddosc-gyro-y-delta;
#X obj 421 347 t f f;
#X obj 448 438 - 0;
#X obj 448 463 abs;
#X obj 421 322 r ddosc-gyro-z;
#X obj 448 488 s ddosc-gyro-z-delta;
#X obj 544 57 r ddosc-historyreset;
#X msg 539 94 0;
#X obj 105 550 t f f;
#X obj 132 641 - 0;
#X obj 132 666 abs;
#X obj 272 552 t f f;
#X obj 299 643 - 0;
#X obj 299 668 abs;
#X obj 455 554 t f f;
#X obj 482 645 - 0;
#X obj 482 670 abs;
#X obj 105 525 r ddosc-mag-x;
#X obj 272 527 r ddosc-mag-y;
#X obj 455 529 r ddosc-mag-z;
#X obj 482 695 s ddosc-mag-z-delta;
#X obj 299 693 s ddosc-mag-y-delta;
#X obj 132 691 s ddosc-mag-x-delta;
#X obj 36 105 t f f;
#X obj 63 196 - 0;
#X obj 63 221 abs;
#X obj 203 107 t f f;
#X obj 230 198 - 0;
#X obj 230 223 abs;
#X obj 386 109 t f f;
#X obj 413 200 - 0;
#X obj 413 225 abs;
#X obj 36 80 r ddosc-acc-x;
#X obj 203 82 r ddosc-acc-y;
#X obj 386 84 r ddosc-acc-z;
#X obj 63 246 s ddosc-acc-x-delta;
#X obj 230 248 s ddosc-acc-y-delta;
#X obj 413 250 s ddosc-acc-z-delta;
#X connect 0 0 1 0;
#X connect 1 0 2 1;
#X connect 1 1 2 0;
#X connect 2 0 3 0;
#X connect 3 0 4 0;
#X connect 5 0 6 1;
#X connect 5 1 6 0;
#X connect 6 0 7 0;
#X connect 7 0 9 0;
#X connect 8 0 5 0;
#X connect 10 0 11 1;
#X connect 10 1 11 0;
#X connect 11 0 12 0;
#X connect 12 0 14 0;
#X connect 13 0 10 0;
#X connect 15 0 16 0;
#X connect 16 0 11 1;
#X connect 16 0 6 1;
#X connect 16 0 2 1;
#X connect 16 0 24 1;
#X connect 16 0 21 1;
#X connect 16 0 18 1;
#X connect 16 0 39 1;
#X connect 16 0 36 1;
#X connect 16 0 33 1;
#X connect 17 0 18 1;
#X connect 17 1 18 0;
#X connect 18 0 19 0;
#X connect 19 0 31 0;
#X connect 20 0 21 1;
#X connect 20 1 21 0;
#X connect 21 0 22 0;
#X connect 22 0 30 0;
#X connect 23 0 24 1;
#X connect 23 1 24 0;
#X connect 24 0 25 0;
#X connect 25 0 29 0;
#X connect 26 0 17 0;
#X connect 27 0 20 0;
#X connect 28 0 23 0;
#X connect 32 0 33 1;
#X connect 32 1 33 0;
#X connect 33 0 34 0;
#X connect 34 0 44 0;
#X connect 35 0 36 1;
#X connect 35 1 36 0;
#X connect 36 0 37 0;
#X connect 37 0 45 0;
#X connect 38 0 39 1;
#X connect 38 1 39 0;
#X connect 39 0 40 0;
#X connect 40 0 46 0;
#X connect 41 0 32 0;
#X connect 42 0 35 0;
#X connect 43 0 38 0;
#X restore 646 58 pd ddosc-deltas;
#X obj 105 206 bng 27 250 50 0 ddosc-historyreset empty historyreset
37 13 0 15 -262144 -1 -1;
#X obj 133 411 list trim;
#X obj 272 486 route PPG:IR PPG:RED PPG:GRN EDA TEMP THERM HUMIDITY
ACC:X ACC:Y ACC:Z GYRO:X GYRO:Y GYRO:Z MAG:X MAG:Y MAG:Z, f 117;
#X obj 101 526 route frame;
#X obj 176 605 list split 2;
#X obj 224 647 list trim;
#X connect 2 0 3 0;
#X connect 2 0 6 0;
#X connect 2 0 7 0;
#X connect 3 0 1 0;
#X connect 6 0 4 0;
#X connect 7 0 5 0;
#X connect 8 0 9 0;
#X connect 9 0 33 0;
#X connect 28 0 29 1;
#X connect 29 0 30 0;
#X connect 33 0 35 0;
#X connect 33 0 29 0;
#X connect 34 0 11 0;
#X connect 34 1 12 0;
#X connect 34 2 13 0;
#X connect 34 3 14 0;
#X connect 34 4 15 0;
#X connect 34 5 16 0;
#X connect 34 6 17 0;
#X connect 34 7 18 0;
#X connect 34 8 19 0;
#X connect 34 9 20 0;
#X connect 34 10 21 0;
#X connect 34 11 22 0;
#X connect 34 12 23 0;
#X connect 34 13 24 0;
#X connect 34 14 25 0;
#X connect 34 15 26 0;
#X connect 35 0 10 0;
#X connect 35 1 36 0;
#X connect 36 1 37 0;
#X connect 37 0 34 0;
#X coords 0 -1 1 1 150 220 1 100 100;
#X restore 17 57 pd oscreceiver;
#X text 592 154 ddosc-mag-x;
#X text 591 179 ddosc-mag-y;
#X text 591 206 ddosc-mag-z;
#X text 498 152 ddosc-gyro-x;
#X text 497 177 ddosc-gyro-y;
#X text 497 204 ddosc-gyro-z;
#X text 405 152 ddosc-acc-x;
#X text 404 177 ddosc-acc-y;
#X text 404 204 ddosc-acc-z;
#X text 177 150 ddosc-ppg-ir;
#X text 176 175 ddosc-ppg-red;
#X text 176 202 ddosc-ppg-grn;
#X text 294 151 ddosc-eda;
#X text 293 176 ddosc-temp;
#X text 293 203 ddosc-therm;
#X text 293 227 ddosc-humidity;
#X text 176 108 OUTGOING SENDS;
