#N canvas 973 196 1041 643 12;
#X declare -lib Gem;
#N canvas 683 248 890 743 graphcontrol 0;
#X obj 123 306 bng 27 250 50 0 showall empty show-all 37 13 0 15 -262144
-1 -1;
#X obj 122 341 bng 27 250 50 0 hideall empty hide-all 37 13 0 15 -262144
-1 -1;
#X obj 124 629 tgl 27 0 showmag empty show-mags 44 11 0 15 -262144
-1 -1 1 1;
#X obj 121 374 tgl 27 0 showppg empty show-ppgs 44 11 0 15 -262144
-1 -1 1 1;
#X obj 120 412 tgl 27 0 showeda empty show-eda 44 11 0 15 -262144 -1
-1 1 1;
#X obj 121 447 tgl 27 0 showtemp empty show-temp 44 11 0 15 -262144
-1 -1 1 1;
#X obj 121 481 tgl 27 0 showtherm empty show-therm 44 11 0 15 -262144
-1 -1 1 1;
#X obj 124 591 tgl 27 0 showgyro empty show-gyro 44 11 0 15 -262144
-1 -1 1 1;
#X obj 120 552 tgl 27 0 showacc empty show-acc 44 11 0 15 -262144 -1
-1 1 1;
#X obj 322 57 loadbang;
#X msg 322 104 1;
#X msg 341 209 0;
#X obj 392 61 r showall;
#X obj 367 158 r hideall;
#X obj 118 129 tgl 27 0 dd-showdata empty show-data 44 11 0 15 -262144
-1 -1 1 1;
#X obj 121 272 tgl 27 0 dd-showcursor empty show-cursor 44 11 0 15
-262144 -1 -1 0 1;
#X obj 119 517 tgl 27 0 showhumidity empty show-humidity 44 11 0 15
-262144 -1 -1 1 1;
#N canvas 497 123 913 854 ddfileloader 0;
#X msg 185 347 1;
#X obj 185 372 s vodataloaded;
#X obj 260 117 r ddatapath;
#X obj 301 48 r ddatabasename;
#X obj 231 219 util/pdkl-pathjoin;
#X obj 365 164 r ddunixwin;
#X obj 366 93 loadbang;
#X msg 366 118 symbol pdstruct;
#X msg 447 396 \; pd-dancerdatapatch read \$1;
#X msg 419 288 \; pd-dancerdatapatch clear;
#X obj 98 177 r dddataloadname;
#X obj 231 259 t b b s b;
#X obj 305 437 r ddloaddataspigot;
#X obj 235 461 spigot 0;
#X obj 217 559 pointer;
#X obj 217 609 get dancerdata numframes;
#X obj 268 670 s ddnumframes;
#X obj 217 634 t b f;
#X msg 213 701 0;
#X obj 213 726 s ddloaddataspigot;
#X msg 217 534 traverse pd-dancerdatapatch \, next \, next;
#X connect 0 0 1 0;
#X connect 2 0 4 0;
#X connect 3 0 4 1;
#X connect 4 0 11 0;
#X connect 5 0 4 3;
#X connect 6 0 7 0;
#X connect 7 0 4 2;
#X connect 10 0 11 0;
#X connect 11 0 0 0;
#X connect 11 1 13 0;
#X connect 11 2 8 0;
#X connect 11 3 9 0;
#X connect 12 0 13 1;
#X connect 13 0 20 0;
#X connect 14 0 15 0;
#X connect 15 0 17 0;
#X connect 17 0 18 0;
#X connect 17 1 16 0;
#X connect 18 0 19 0;
#X connect 20 0 14 0;
#X restore 503 113 pd ddfileloader;
#X obj 118 167 bng 27 250 50 0 ddcleardata empty clear-data 37 13 0
15 -262144 -1 -1;
#X obj 357 405 r ddcleardata;
#X obj 445 18 r vodataloaded;
#X msg 348 324 \; pd-dancerdatapatch vis \$1;
#X msg 351 441 \; pd-dancerdatapatch clear;
#X obj 359 280 r dd-showdata;
#N canvas 387 523 1528 575 dancerdatapatch 0;
#X restore 504 76 pd dancerdatapatch;
#N canvas 596 152 1060 586 dancerstruct 0;
#N canvas 1068 241 655 514 setcursor 0;
#X obj 83 127 r ddcurframe;
#X obj 111 326 set moving-cursor x;
#X obj 234 276 pointer;
#X msg 234 251 traverse pd-dancerdatapatch \, next;
#X obj 232 177 r vodataloaded;
#X obj 232 202 sel 1;
#X connect 0 0 1 0;
#X connect 2 0 1 1;
#X connect 3 0 2 0;
#X connect 4 0 5 0;
#X connect 5 0 3 0;
#X restore 30 121 pd setcursor;
#N canvas 3 104 450 300 emotibitstruct 0;
#X obj 16 70 struct emotibit float x float ppg-ir float ppg-red float
ppg-grn float eda float temp float therm float humidity float acc-x
float acc-y float acc-z float gyro-x float gyro-y float gyro-z float
mag-x float mag-y float mag-z;
#X restore 28 56 pd emotibitstruct;
#N canvas 706 242 450 300 moving-cursor-struct 0;
#X obj 85 169 drawpolygon 900 3 0 0 0 500;
#X obj 77 117 r dd-showcursor;
#X obj 66 89 struct moving-cursor float x;
#X connect 1 0 0 0;
#X restore 33 84 pd moving-cursor-struct;
#X obj 246 61 r showacc;
#X obj 262 253 r showhumidity;
#X obj 266 116 plot -y acc-x(-10:10)(500:0) oscdata 920 1;
#X obj 264 158 plot -y acc-y(-10:10)(500:0) oscdata 209 1;
#X obj 263 213 plot -y acc-z(-10:10)(500:0) oscdata 29 1;
#X obj 262 278 plot -y humidity(40:100)(500:0) oscdata 255 1;
#X obj 611 37 r showmag;
#X obj 594 175 r showppg;
#X obj 602 86 plot -y mag-x(-85:85)(500:0) oscdata 440 1;
#X obj 593 112 plot -y mag-y(-85:85)(500:0) oscdata 44 1;
#X obj 593 137 plot -y mag-z(-85:85)(500:0) oscdata 404 1;
#X obj 623 236 plot -y ppg-ir(133000:170000)(500:0) oscdata 505 1;
#X obj 619 280 plot -y ppg-red(70000:94000)(500:0) oscdata 500 1;
#X obj 624 317 plot -y ppg-grn(3000:5000)(500:0) oscdata 50 1;
#X obj 253 338 r showgyro;
#X obj 303 371 plot -y gyro-x(-1000:1000)(500:0) oscdata 735 1;
#X obj 302 405 plot -y gyro-y(-1000:1000)(500:0) oscdata 537 1;
#X obj 298 452 plot -y gyro-z(-1000:1000)(500:0) oscdata 357 1;
#X obj 654 346 r showeda;
#X obj 655 411 r showtemp;
#X obj 650 491 r showtherm;
#X obj 654 375 plot -y eda(0:5)(500:0) oscdata 227 1;
#X obj 653 453 plot -y temp(20:40)(500:0) oscdata 722 1;
#X obj 659 524 plot -y therm(25:35)(500:0) oscdata 332 1;
#X obj 29 20 struct dancerdata float pos float numframes array oscdata
emotibit;
#X connect 3 0 5 0;
#X connect 3 0 6 0;
#X connect 3 0 7 0;
#X connect 4 0 8 0;
#X connect 9 0 11 0;
#X connect 9 0 12 0;
#X connect 9 0 13 0;
#X connect 10 0 14 0;
#X connect 10 0 15 0;
#X connect 10 0 16 0;
#X connect 17 0 18 0;
#X connect 17 0 19 0;
#X connect 17 0 20 0;
#X connect 21 0 24 0;
#X connect 22 0 25 0;
#X connect 23 0 26 0;
#X restore 506 149 pd dancerstruct;
#X obj 119 199 bng 27 250 50 0 ddloaddata empty load(just)data 37 13
0 15 -262144 -1 -1;
#X obj 623 236 r ddloaddata;
#X obj 628 282 openpanel;
#X obj 649 410 s dddataloadname;
#X msg 589 413 27;
#X obj 589 438 s ddfps;
#X obj 119 234 tgl 27 0 ddplaydata empty play(just)data 44 11 0 15
-262144 -1 -1 1 1;
#X obj 493 230 r ddplaydata;
#X obj 628 307 t b s b;
#X obj 703 359 s ddloaddataspigot;
#X msg 695 321 1;
#X connect 9 0 10 0;
#X connect 10 0 2 0;
#X connect 10 0 3 0;
#X connect 10 0 4 0;
#X connect 10 0 5 0;
#X connect 10 0 6 0;
#X connect 10 0 7 0;
#X connect 10 0 8 0;
#X connect 10 0 16 0;
#X connect 11 0 2 0;
#X connect 11 0 3 0;
#X connect 11 0 4 0;
#X connect 11 0 5 0;
#X connect 11 0 6 0;
#X connect 11 0 7 0;
#X connect 11 0 8 0;
#X connect 11 0 16 0;
#X connect 12 0 10 0;
#X connect 13 0 11 0;
#X connect 19 0 22 0;
#X connect 20 0 10 0;
#X connect 23 0 21 0;
#X connect 27 0 28 0;
#X connect 28 0 34 0;
#X connect 30 0 31 0;
#X connect 34 0 30 0;
#X connect 34 1 29 0;
#X connect 34 2 36 0;
#X connect 36 0 35 0;
#X coords 0 -1 1 1 200 560 1 100 100;
#X restore 50 49 pd graphcontrol;
#N canvas 825 322 1133 733 datavis 0;
#X obj 107 215 nbx 7 20 -1e+37 1e+37 0 0 empty ppg-ir ppg-ir 0 -8 0
17 -262144 -1 -1 159390 256;
#X obj 108 257 nbx 7 20 -1e+37 1e+37 0 0 empty ppg-red ppg-red 0 -8
0 17 -262144 -1 -1 98828.5 256;
#X obj 106 293 nbx 7 20 -1e+37 1e+37 0 0 empty ppg-grn ppg-grn 0 -8
0 17 -262144 -1 -1 5036 256;
#X obj 111 333 nbx 5 20 -1e+37 1e+37 0 0 empty eda eda 0 -8 0 17 -262144
-1 -1 3.276 256;
#X obj 108 375 nbx 5 20 -1e+37 1e+37 0 0 empty temp temp 0 -8 0 17
-262144 -1 -1 33.508 256;
#X obj 108 417 nbx 5 20 -1e+37 1e+37 0 0 empty therm therm 0 -8 0 17
-262144 -1 -1 31.307 256;
#X obj 107 460 nbx 5 20 -1e+37 1e+37 0 0 empty humidity humidity 0
-8 0 17 -262144 -1 -1 79.018 256;
#X obj 227 147 nbx 5 20 -1e+37 1e+37 0 0 empty acc-x acc-x 0 -8 0 17
-262144 -1 -1 0.905 256;
#X obj 225 186 nbx 5 20 -1e+37 1e+37 0 0 empty acc-y acc-y 0 -8 0 17
-262144 -1 -1 -0.349 256;
#X obj 227 224 nbx 5 20 -1e+37 1e+37 0 0 empty acc-z acc-z 0 -8 0 17
-262144 -1 -1 -0.114 256;
#X obj 227 267 nbx 5 20 -1e+37 1e+37 0 0 empty gyro-x gyro-x 0 -8 0
17 -262144 -1 -1 7.2175 256;
#X obj 224 306 nbx 5 20 -1e+37 1e+37 0 0 empty gyro-y gyro-y 0 -8 0
17 -262144 -1 -1 -1.938 256;
#N canvas 293 193 1300 260 dancerarrayget-acc 0;
#X obj 312 82 r ddataptr;
#X obj 87 154 array get -s dancerdata oscdata -f emotibit acc-x;
#X obj 115 83 t f b;
#X msg 173 100 1, f 4;
#X obj 88 196 s acc-x;
#X obj 694 82 r ddataptr;
#X obj 497 83 t f b;
#X msg 555 100 1, f 4;
#X obj 469 154 array get -s dancerdata oscdata -f emotibit acc-y;
#X obj 1124 85 r ddataptr;
#X obj 927 86 t f b;
#X msg 985 103 1, f 4;
#X obj 899 157 array get -s dancerdata oscdata -f emotibit acc-z;
#X obj 470 196 s acc-y;
#X obj 900 199 s acc-z;
#X obj 114 33 r ddmodframe;
#X obj 496 33 r ddmodframe;
#X obj 926 36 r ddmodframe;
#X connect 0 0 1 2;
#X connect 1 0 4 0;
#X connect 2 0 1 0;
#X connect 2 1 3 0;
#X connect 3 0 1 1;
#X connect 5 0 8 2;
#X connect 6 0 8 0;
#X connect 6 1 7 0;
#X connect 7 0 8 1;
#X connect 8 0 13 0;
#X connect 9 0 12 2;
#X connect 10 0 12 0;
#X connect 10 1 11 0;
#X connect 11 0 12 1;
#X connect 12 0 14 0;
#X connect 15 0 2 0;
#X connect 16 0 6 0;
#X connect 17 0 10 0;
#X restore 332 199 pd dancerarrayget-acc;
#N canvas 434 230 1603 473 dancerarrayget-gyro 0;
#X obj 312 82 r ddataptr;
#X obj 115 83 t f b;
#X msg 173 100 1, f 4;
#X obj 694 82 r ddataptr;
#X obj 497 83 t f b;
#X msg 555 100 1, f 4;
#X obj 1088 75 r ddataptr;
#X obj 891 76 t f b;
#X msg 949 93 1, f 4;
#X obj 87 154 array get -s dancerdata oscdata -f emotibit gyro-x;
#X obj 863 147 array get -s dancerdata oscdata -f emotibit gyro-z;
#X obj 469 154 array get -s dancerdata oscdata -f emotibit gyro-y;
#X obj 88 196 s gyro-x;
#X obj 470 196 s gyro-y;
#X obj 864 189 s gyro-z;
#X obj 114 33 r ddmodframe;
#X obj 496 33 r ddmodframe;
#X obj 890 26 r ddmodframe;
#X connect 0 0 9 2;
#X connect 1 0 9 0;
#X connect 1 1 2 0;
#X connect 2 0 9 1;
#X connect 3 0 11 2;
#X connect 4 0 11 0;
#X connect 4 1 5 0;
#X connect 5 0 11 1;
#X connect 6 0 10 2;
#X connect 7 0 10 0;
#X connect 7 1 8 0;
#X connect 8 0 10 1;
#X connect 9 0 12 0;
#X connect 10 0 14 0;
#X connect 11 0 13 0;
#X connect 15 0 1 0;
#X connect 16 0 4 0;
#X connect 17 0 7 0;
#X restore 332 240 pd dancerarrayget-gyro;
#N canvas 571 244 1261 294 dancerarrayget-mag 0;
#X obj 312 82 r ddataptr;
#X obj 115 83 t f b;
#X msg 173 100 1, f 4;
#X obj 694 82 r ddataptr;
#X obj 497 83 t f b;
#X msg 555 100 1, f 4;
#X obj 1063 81 r ddataptr;
#X obj 866 82 t f b;
#X msg 924 99 1, f 4;
#X obj 838 153 array get -s dancerdata oscdata -f emotibit mag-z;
#X obj 87 154 array get -s dancerdata oscdata -f emotibit mag-x;
#X obj 469 154 array get -s dancerdata oscdata -f emotibit mag-y;
#X obj 88 196 s mag-x;
#X obj 470 196 s mag-y;
#X obj 839 195 s mag-z;
#X obj 114 33 r ddmodframe;
#X obj 496 33 r ddmodframe;
#X obj 865 32 r ddmodframe;
#X connect 0 0 10 2;
#X connect 1 0 10 0;
#X connect 1 1 2 0;
#X connect 2 0 10 1;
#X connect 3 0 11 2;
#X connect 4 0 11 0;
#X connect 4 1 5 0;
#X connect 5 0 11 1;
#X connect 6 0 9 2;
#X connect 7 0 9 0;
#X connect 7 1 8 0;
#X connect 8 0 9 1;
#X connect 9 0 14 0;
#X connect 10 0 12 0;
#X connect 11 0 13 0;
#X connect 15 0 1 0;
#X connect 16 0 4 0;
#X connect 17 0 7 0;
#X restore 333 277 pd dancerarrayget-mag;
#N canvas 412 150 1475 525 dancerarrayget-ppg 0;
#X obj 312 82 r ddataptr;
#X obj 115 83 t f b;
#X msg 173 100 1, f 4;
#X obj 694 82 r ddataptr;
#X obj 497 83 t f b;
#X msg 555 100 1, f 4;
#X obj 1088 95 r ddataptr;
#X obj 891 96 t f b;
#X msg 949 113 1, f 4;
#X obj 87 154 array get -s dancerdata oscdata -f emotibit ppg-ir;
#X obj 469 154 array get -s dancerdata oscdata -f emotibit ppg-red
;
#X obj 863 167 array get -s dancerdata oscdata -f emotibit ppg-grn
;
#X obj 88 196 s ppg-ir;
#X obj 470 196 s ppg-red;
#X obj 864 209 s ppg-grn;
#X obj 114 33 r ddmodframe;
#X obj 496 33 r ddmodframe;
#X obj 890 46 r ddmodframe;
#X connect 0 0 9 2;
#X connect 1 0 9 0;
#X connect 1 1 2 0;
#X connect 2 0 9 1;
#X connect 3 0 10 2;
#X connect 4 0 10 0;
#X connect 4 1 5 0;
#X connect 5 0 10 1;
#X connect 6 0 11 2;
#X connect 7 0 11 0;
#X connect 7 1 8 0;
#X connect 8 0 11 1;
#X connect 9 0 12 0;
#X connect 10 0 13 0;
#X connect 11 0 14 0;
#X connect 15 0 1 0;
#X connect 16 0 4 0;
#X connect 17 0 7 0;
#X restore 340 144 pd dancerarrayget-ppg;
#N canvas 128 183 1636 286 dancerarrayget-other 0;
#X obj 312 82 r ddataptr;
#X obj 115 83 t f b;
#X msg 173 100 1, f 4;
#X obj 694 82 r ddataptr;
#X obj 497 83 t f b;
#X msg 555 100 1, f 4;
#X obj 1055 76 r ddataptr;
#X obj 858 77 t f b;
#X msg 916 94 1, f 4;
#X obj 87 154 array get -s dancerdata oscdata -f emotibit eda;
#X obj 88 196 s eda;
#X obj 469 154 array get -s dancerdata oscdata -f emotibit temp;
#X obj 470 196 s temp;
#X obj 830 148 array get -s dancerdata oscdata -f emotibit therm;
#X obj 831 190 s therm;
#X obj 1411 78 r ddataptr;
#X obj 1214 79 t f b;
#X msg 1272 96 1, f 4;
#X obj 1186 150 array get -s dancerdata oscdata -f emotibit humidity
;
#X obj 1187 192 s humidity;
#X obj 114 33 r ddmodframe;
#X obj 496 33 r ddmodframe;
#X obj 857 27 r ddmodframe;
#X obj 1213 29 r ddmodframe;
#X connect 0 0 9 2;
#X connect 1 0 9 0;
#X connect 1 1 2 0;
#X connect 2 0 9 1;
#X connect 3 0 11 2;
#X connect 4 0 11 0;
#X connect 4 1 5 0;
#X connect 5 0 11 1;
#X connect 6 0 13 2;
#X connect 7 0 13 0;
#X connect 7 1 8 0;
#X connect 8 0 13 1;
#X connect 9 0 10 0;
#X connect 11 0 12 0;
#X connect 13 0 14 0;
#X connect 15 0 18 2;
#X connect 16 0 18 0;
#X connect 16 1 17 0;
#X connect 17 0 18 1;
#X connect 18 0 19 0;
#X connect 20 0 1 0;
#X connect 21 0 4 0;
#X connect 22 0 7 0;
#X connect 23 0 16 0;
#X restore 338 173 pd dancerarrayget-other;
#X obj 226 345 nbx 5 20 -1e+37 1e+37 0 0 empty gyro-z gyro-z 0 -8 0
17 -262144 -1 -1 -4.6845 256;
#X obj 224 384 nbx 5 20 -1e+37 1e+37 0 0 empty mag-x mag-x 0 -8 0 17
-262144 -1 -1 29 256;
#X obj 224 422 nbx 5 20 -1e+37 1e+37 0 0 empty mag-y mag-y 0 -8 0 17
-262144 -1 -1 -4.5 256;
#X obj 222 460 nbx 5 20 -1e+37 1e+37 0 0 empty mag-z mag-z 0 -8 0 17
-262144 -1 -1 -52 256;
#X obj 112 154 tgl 27 0 dd-shownum empty show 44 11 0 15 -262144 -1
-1 0 1;
#X obj 120 26 loadbang;
#X msg 120 51 1;
#N canvas 209 267 1024 509 ddptrcalc 0;
#X obj 100 41 r ddcurframe;
#X obj 137 110 t f f;
#X obj 183 136 / 1000;
#X obj 183 161 i;
#X obj 183 186 + 1;
#X obj 185 219 change;
#X msg 303 323 traverse pd-dancerdatapatch;
#X obj 209 425 s ddataptr;
#X obj 169 332 util/dkfor;
#X obj 297 119 r vodataloaded;
#X msg 297 144 999999;
#X obj 204 279 t f b b;
#X obj 185 244 moses 20;
#X msg 169 357 next;
#X obj 132 210 % 1000;
#X obj 169 382 pointer;
#X msg 253 383 next;
#X obj 65 375 s ddmodframe;
#X obj 47 334 spigot;
#X obj 93 285 r dd-shownum;
#X connect 0 0 1 0;
#X connect 1 0 14 0;
#X connect 1 1 2 0;
#X connect 2 0 3 0;
#X connect 3 0 4 0;
#X connect 4 0 5 0;
#X connect 5 0 12 0;
#X connect 6 0 15 0;
#X connect 8 0 13 0;
#X connect 9 0 10 0;
#X connect 10 0 4 0;
#X connect 11 0 8 0;
#X connect 11 1 16 0;
#X connect 11 2 6 0;
#X connect 12 0 11 0;
#X connect 13 0 15 0;
#X connect 14 0 18 0;
#X connect 15 0 7 0;
#X connect 16 0 15 0;
#X connect 18 0 17 0;
#X connect 19 0 18 1;
#X restore 345 109 pd ddptrcalc;
#X connect 22 0 23 0;
#X connect 23 0 21 0;
#X coords 0 -1 1 1 220 400 1 100 100;
#X restore 261 47 pd datavis;
#N canvas 754 221 966 553 oscsender 0;
#X obj 111 124 tgl 27 0 ddosc-sendtgl empty send-osc 44 11 0 15 -262144
-1 -1 0 1;
#X obj 108 269 spigot;
#X obj 61 369 list prepend send;
#X obj 61 394 list trim;
#X obj 126 490 netsend -u -b;
#X obj 278 172 t f f;
#X obj 295 218 sel 1 0, f 18;
#X msg 253 382 connect localhost \$1;
#X msg 301 443 disconnect;
#X obj 110 172 nbx 7 20 -1e+37 1e+37 0 0 oscoutport empty osc-out-port
0 -8 0 17 -262144 -1 -1 5000 256;
#X obj 259 272 v oscoutport;
#X obj 170 43 loadbang;
#X msg 170 68 5000;
#N canvas 404 193 1312 487 ddatagetter 0;
#X obj 431 53 r ddataptr;
#X obj 242 117 element dancerdata oscdata;
#X obj 209 186 + 1;
#X obj 190 222 oscformat frame;
#X obj 274 427 outlet;
#X obj 234 72 r ddmodframe;
#X text 50 194 0-index to 1-index;
#X obj 242 142 get emotibit x ppg-ir ppg-red ppg-grn eda temp therm
humidity acc-x acc-y acc-z gyro-x gyro-y gyro-z mag-x mag-y mag-z,
f 131;
#X obj 96 271 oscformat EmotiBit 0 PPG:IR;
#X obj 183 312 oscformat EmotiBit 0 PPG:RED;
#X obj 212 348 oscformat EmotiBit 0 PPG:GRN;
#X obj 308 203 oscformat EmotiBit 0 EDA;
#X obj 370 242 oscformat EmotiBit 0 TEMP;
#X obj 418 278 oscformat EmotiBit 0 THERM;
#X obj 422 310 oscformat EmotiBit 0 HUMIDITY;
#X obj 587 230 oscformat EmotiBit 0 ACC:X;
#X obj 624 266 oscformat EmotiBit 0 ACC:Y;
#X obj 663 325 oscformat EmotiBit 0 ACC:Z;
#X obj 793 211 oscformat EmotiBit 0 GYRO:X;
#X obj 830 242 oscformat EmotiBit 0 GYRO:Y;
#X obj 826 282 oscformat EmotiBit 0 GYRO:Z;
#X obj 990 180 oscformat EmotiBit 0 MAG:X;
#X obj 1032 246 oscformat EmotiBit 0 MAG:Y;
#X obj 992 317 oscformat EmotiBit 0 MAG:Z;
#X connect 0 0 1 1;
#X connect 1 0 7 0;
#X connect 2 0 3 0;
#X connect 3 0 4 0;
#X connect 5 0 1 0;
#X connect 7 0 2 0;
#X connect 7 1 8 0;
#X connect 7 2 9 0;
#X connect 7 3 10 0;
#X connect 7 4 11 0;
#X connect 7 5 12 0;
#X connect 7 6 13 0;
#X connect 7 7 14 0;
#X connect 7 8 15 0;
#X connect 7 9 16 0;
#X connect 7 10 17 0;
#X connect 7 11 18 0;
#X connect 7 12 19 0;
#X connect 7 13 20 0;
#X connect 7 14 21 0;
#X connect 7 15 22 0;
#X connect 7 16 23 0;
#X connect 8 0 4 0;
#X connect 9 0 4 0;
#X connect 10 0 4 0;
#X connect 11 0 4 0;
#X connect 12 0 4 0;
#X connect 13 0 4 0;
#X connect 14 0 4 0;
#X connect 15 0 4 0;
#X connect 16 0 4 0;
#X connect 17 0 4 0;
#X connect 18 0 4 0;
#X connect 19 0 4 0;
#X connect 20 0 4 0;
#X connect 21 0 4 0;
#X connect 22 0 4 0;
#X connect 23 0 4 0;
#X restore 103 221 pd ddatagetter;
#X obj 278 147 r ddosc-sendtgl;
#X connect 1 0 2 0;
#X connect 2 0 3 0;
#X connect 3 0 4 0;
#X connect 5 0 1 1;
#X connect 5 1 6 0;
#X connect 6 0 10 0;
#X connect 6 1 8 0;
#X connect 7 0 4 0;
#X connect 8 0 4 0;
#X connect 10 0 7 0;
#X connect 11 0 12 0;
#X connect 12 0 9 0;
#X connect 13 0 1 0;
#X connect 14 0 5 0;
#X coords 0 -1 1 1 150 100 1 100 100;
#X restore 263 454 pd oscsender;
#X obj 60 12 tgl 27 0 ddunixwin empty unix/win 44 11 0 15 -262144 -1
-1 0 1;
#N canvas 284 153 1700 815 vidplayer 0;
#X obj 989 27 declare -lib Gem;
#X text 638 30 Example:;
#X obj 636 57 gemhead;
#X obj 679 427 bng 15 250 50 0 empty empty end_reached 20 7 0 10 -262144
-1 -1;
#X obj 420 380 openpanel;
#X msg 482 457 open \$1;
#X msg 776 191 auto \$1;
#X obj 636 331 pix_movie;
#X obj 721 455 unpack f f f f;
#X obj 630 431 t b l;
#X msg 305 630 range 0 \$1;
#X obj 597 578 rectangle 8 4.5;
#X obj 439 415 t a a;
#X obj 475 527 s ddatabasename;
#X obj 435 550 s ddatapath;
#X obj 431 490 util/pdkl-pathparts;
#X obj 938 551 util/dkrdiv 1000;
#X obj 1080 602 util/dkvanctr;
#X obj 800 126 r ddplay;
#X obj 1024 191 r ddplay;
#X obj 1148 404 t f f;
#X obj 1181 449 r ddmovieloaded;
#X obj 1114 290 r ddmetroval;
#X obj 623 506 s ddmovieloaded;
#X obj 719 263 r ddframeseek;
#X obj 1148 379 r ddframeseek;
#X obj 109 275 hsl 512 15 0 10039 0 0 ddframeseek ddvidseek seek -2
-8 0 12 -262144 -1 -1 23384 1;
#X obj 305 655 s ddvidseek;
#X obj 419 337 r ddopenbang;
#X obj 105 133 bng 27 250 50 0 ddopenbang empty load-movie(and_data)
37 13 0 15 -262144 -1 -1;
#X obj 255 208 nbx 7 20 -1e+37 1e+37 0 0 empty ddnumframes numframes
0 -8 0 17 -262144 -1 -1 10039 256;
#X obj 500 206 nbx 7 20 -1e+37 1e+37 0 0 empty ddwidth width 0 -8 0
17 -262144 -1 -1 0 256;
#X obj 499 245 nbx 7 20 -1e+37 1e+37 0 0 empty ddheight height 0 -8
0 17 -262144 -1 -1 0 256;
#X obj 764 546 s ddwidth;
#X obj 794 501 s ddheight;
#X symbolatom 335 109 40 0 0 0 file ddatabasename -;
#X obj 376 207 nbx 7 20 -1e+37 1e+37 0 0 empty ddcurframe cur_frame
0 -8 0 17 -262144 -1 -1 4594 256;
#X obj 255 246 nbx 7 20 -1e+37 1e+37 0 0 empty ddfps fps 0 -8 0 17
-262144 -1 -1 27 256;
#X obj 102 168 tgl 27 0 ddplay empty play_movie_and_data 44 11 0 15
-262144 -1 -1 0 1;
#X obj 965 471 s ddfps;
#X obj 937 517 r ddfps;
#X obj 755 596 s ddnumframes;
#X obj 1113 528 r ddnumframes;
#X obj 303 603 r ddnumframes;
#X obj 413 600 r ddcurframe;
#X msg 413 625 set \$1;
#X obj 413 650 s ddvidseek;
#X obj 938 576 s ddmetroval;
#X obj 1081 334 metro;
#X obj 155 501 gemwin;
#X msg 27 479 0 \, destroy;
#X msg 102 418 create \, 1;
#X text 194 358 (stop rendering and);
#X obj 103 207 tgl 27 0 ddshowscreen empty show-screen 44 11 0 15 -262144
-1 -1 0 1;
#X obj 37 315 r ddshowscreen;
#X msg 217 443 dimen 640 360 \, buffer 2;
#X obj 230 411 loadbang;
#X obj 60 364 sel 0 1;
#X obj 1136 679 s ddcurframe;
#X obj 1066 636 t f f;
#X msg 1033 687 set \$1;
#X obj 1033 712 s ddvidseek;
#X obj 741 304 r ddcurframe;
#X obj 1122 175 r ddplaydata;
#X obj 1043 247 ||;
#X obj 1092 208 t b f b;
#X connect 2 0 7 0;
#X connect 4 0 12 0;
#X connect 5 0 7 0;
#X connect 6 0 7 0;
#X connect 7 0 11 0;
#X connect 7 1 9 0;
#X connect 7 2 3 0;
#X connect 8 0 41 0;
#X connect 8 1 33 0;
#X connect 8 2 34 0;
#X connect 8 3 39 0;
#X connect 9 0 23 0;
#X connect 9 1 8 0;
#X connect 10 0 27 0;
#X connect 12 0 5 0;
#X connect 12 1 15 0;
#X connect 15 0 14 0;
#X connect 15 1 13 0;
#X connect 16 0 47 0;
#X connect 17 0 59 0;
#X connect 18 0 6 0;
#X connect 19 0 64 0;
#X connect 20 0 17 0;
#X connect 20 1 58 0;
#X connect 21 0 17 3;
#X connect 22 0 48 1;
#X connect 25 0 20 0;
#X connect 28 0 4 0;
#X connect 40 0 16 0;
#X connect 42 0 17 1;
#X connect 43 0 10 0;
#X connect 44 0 45 0;
#X connect 45 0 46 0;
#X connect 48 0 17 0;
#X connect 50 0 49 0;
#X connect 51 0 49 0;
#X connect 54 0 57 0;
#X connect 55 0 49 0;
#X connect 56 0 55 0;
#X connect 57 0 50 0;
#X connect 57 1 51 0;
#X connect 59 0 60 0;
#X connect 59 1 58 0;
#X connect 60 0 61 0;
#X connect 62 0 7 1;
#X connect 63 0 65 0;
#X connect 64 0 48 0;
#X connect 65 0 64 0;
#X connect 65 1 64 1;
#X coords 0 -1 1 1 530 200 1 100 100;
#X restore 490 49 pd vidplayer;
