#N canvas 1038 104 1041 643 12;
#X declare -lib Gem;
#N canvas 173 215 890 743 graphcontrol 0;
#X obj 118 252 bng 27 250 50 0 showall empty show-all 37 13 0 15 -262144
-1 -1;
#X obj 117 289 bng 27 250 50 0 hideall empty hide-all 37 13 0 15 -262144
-1 -1;
#X obj 119 585 tgl 27 0 showmag empty show-mags 44 11 0 15 -262144
-1 -1 0 1;
#X obj 116 330 tgl 27 0 showppg empty show-ppgs 44 11 0 15 -262144
-1 -1 1 1;
#X obj 115 368 tgl 27 0 showeda empty show-eda 44 11 0 15 -262144 -1
-1 0 1;
#X obj 116 403 tgl 27 0 showtemp empty show-temp 44 11 0 15 -262144
-1 -1 0 1;
#X obj 116 437 tgl 27 0 showtherm empty show-therm 44 11 0 15 -262144
-1 -1 0 1;
#X obj 119 547 tgl 27 0 showgyro empty show-gyro 44 11 0 15 -262144
-1 -1 0 1;
#X obj 115 508 tgl 27 0 showacc empty show-acc 44 11 0 15 -262144 -1
-1 0 1;
#X obj 322 57 loadbang;
#X msg 322 104 1;
#X msg 341 209 0;
#X obj 392 61 r showall;
#X obj 367 158 r hideall;
#X obj 117 143 tgl 27 0 dd-showdata empty show-data 44 11 0 15 -262144
-1 -1 1 1;
#X obj 120 216 tgl 27 0 dd-showcursor empty show-cursor 44 11 0 15
-262144 -1 -1 0 1;
#X obj 114 473 tgl 27 0 showhumidity empty show-humidity 44 11 0 15
-262144 -1 -1 0 1;
#N canvas 396 376 1376 706 dancerstruct 0;
#N canvas 3 104 450 300 emotibit 0;
#X obj 16 70 struct emotibit float x float ppg-ir float ppg-red float
ppg-grn float eda float temp float therm float humidity float acc-x
float acc-y float acc-z float gyro-x float gyro-y float gyro-z float
mag-x float mag-y float mag-z;
#X restore 296 70 pd emotibit;
#X obj 608 48 r showmag;
#X obj 465 215 r showppg;
#X obj 1002 59 r showeda;
#X obj 969 118 r showtemp;
#X obj 947 228 r showtherm;
#X obj 562 482 r showgyro;
#X obj 82 324 r showacc;
#X obj 70 132 loadbang;
#X msg 70 157 10;
#X obj 70 182 v xspacing;
#X obj 104 557 r showhumidity;
#X obj 228 276 pointer;
#X obj 232 177 r vodataloaded;
#X obj 232 202 sel 1;
#X obj 228 301 s ddataptr;
#X obj 39 33 struct dancerdata float pos array oscdata emotibit;
#X obj 566 156 plot -y mag-x(-85:85)(500:0) oscdata 440 1;
#X obj 557 182 plot -y mag-y(-85:85)(500:0) oscdata 44 1;
#X obj 557 207 plot -y mag-z(-85:85)(500:0) oscdata 404 1;
#X obj 509 276 plot -y ppg-ir(133000:170000)(500:0) oscdata 505 1;
#X obj 505 320 plot -y ppg-red(70000:94000)(500:0) oscdata 500 1;
#X obj 510 357 plot -y ppg-grn(3000:5000)(500:0) oscdata 50 1;
#X obj 612 515 plot -y gyro-x(-1000:1000)(500:0) oscdata 735 1;
#X obj 611 549 plot -y gyro-y(-1000:1000)(500:0) oscdata 537 1;
#X obj 607 596 plot -y gyro-z(-1000:1000)(500:0) oscdata 357 1;
#X obj 1002 88 plot -y eda(0:5)(500:0) oscdata 227 1;
#X obj 967 160 plot -y temp(20:40)(500:0) oscdata 722 1;
#X obj 957 274 plot -y therm(25:35)(500:0) oscdata 332 1;
#X obj 102 379 plot -y acc-x(-10:10)(500:0) oscdata 920 1;
#X obj 100 421 plot -y acc-y(-10:10)(500:0) oscdata 209 1;
#X obj 99 476 plot -y acc-z(-10:10)(500:0) oscdata 29 1;
#X obj 104 582 plot -y humidity(40:100)(500:0) oscdata 255 1;
#N canvas 706 242 450 300 moving-cursor 0;
#X obj 66 89 struct moving-cursor float x;
#X obj 85 169 drawpolygon 900 3 0 0 0 500;
#X obj 77 117 r dd-showcursor;
#X connect 2 0 1 0;
#X restore 231 108 pd moving-cursor;
#N canvas 1068 241 655 514 setcursor 0;
#X obj 83 127 r ddcurframe;
#X obj 111 326 set moving-cursor x;
#X obj 234 276 pointer;
#X msg 234 251 traverse pd-dancerdatapatch \, next;
#X obj 232 177 r vodataloaded;
#X obj 232 202 sel 1;
#X connect 0 0 1 0;
#X connect 2 0 1 1;
#X connect 3 0 2 0;
#X connect 4 0 5 0;
#X connect 5 0 3 0;
#X restore 49 70 pd setcursor;
#X msg 228 245 traverse pd-dancerdatapatch \, next \, next;
#X connect 1 0 17 0;
#X connect 1 0 18 0;
#X connect 1 0 19 0;
#X connect 2 0 20 0;
#X connect 2 0 21 0;
#X connect 2 0 22 0;
#X connect 3 0 26 0;
#X connect 4 0 27 0;
#X connect 5 0 28 0;
#X connect 6 0 23 0;
#X connect 6 0 24 0;
#X connect 6 0 25 0;
#X connect 7 0 29 0;
#X connect 7 0 30 0;
#X connect 7 0 31 0;
#X connect 8 0 9 0;
#X connect 9 0 10 0;
#X connect 11 0 32 0;
#X connect 12 0 15 0;
#X connect 13 0 14 0;
#X connect 14 0 35 0;
#X connect 35 0 12 0;
#X restore 496 188 pd dancerstruct;
#N canvas 452 161 750 601 ddfileloader 0;
#X msg 219 318 1;
#X obj 219 343 s vodataloaded;
#X obj 260 117 r ddatapath;
#X obj 301 48 r ddatabasename;
#X obj 231 219 util/pdkl-pathjoin;
#X obj 365 164 r ddunixwin;
#X obj 366 93 loadbang;
#X msg 366 118 symbol pdstruct;
#X msg 222 400 \; pd-dancerdatapatch read \$1;
#X obj 230 261 t b s b;
#X msg 315 294 \; pd-dancerdatapatch clear;
#X connect 0 0 1 0;
#X connect 2 0 4 0;
#X connect 3 0 4 1;
#X connect 4 0 9 0;
#X connect 5 0 4 3;
#X connect 6 0 7 0;
#X connect 7 0 4 2;
#X connect 9 0 0 0;
#X connect 9 1 8 0;
#X connect 9 2 10 0;
#X restore 497 250 pd ddfileloader;
#X obj 117 181 bng 27 250 50 0 ddcleardata empty clear-data 37 13 0
15 -262144 -1 -1;
#X obj 357 405 r ddcleardata;
#X obj 445 18 r vodataloaded;
#X msg 348 324 \; pd-dancerdatapatch vis \$1;
#X msg 351 441 \; pd-dancerdatapatch clear;
#X obj 359 280 r dd-showdata;
#N canvas -19 330 1469 791 dancerdatapatch 0;
#X restore 608 304 pd dancerdatapatch;
#X connect 9 0 10 0;
#X connect 10 0 2 0;
#X connect 10 0 3 0;
#X connect 10 0 4 0;
#X connect 10 0 5 0;
#X connect 10 0 6 0;
#X connect 10 0 7 0;
#X connect 10 0 8 0;
#X connect 10 0 16 0;
#X connect 11 0 2 0;
#X connect 11 0 3 0;
#X connect 11 0 4 0;
#X connect 11 0 5 0;
#X connect 11 0 6 0;
#X connect 11 0 7 0;
#X connect 11 0 8 0;
#X connect 11 0 16 0;
#X connect 12 0 10 0;
#X connect 13 0 11 0;
#X connect 20 0 23 0;
#X connect 21 0 10 0;
#X connect 24 0 22 0;
#X coords 0 -1 1 1 200 520 1 100 100;
#X restore 50 49 pd graphcontrol;
#N canvas 825 322 1133 733 datavis 0;
#X obj 107 215 nbx 7 20 -1e+37 1e+37 0 0 empty ppg-ir ppg-ir 0 -8 0
17 -262144 -1 -1 0 256;
#X obj 108 257 nbx 7 20 -1e+37 1e+37 0 0 empty ppg-red ppg-red 0 -8
0 17 -262144 -1 -1 0 256;
#X obj 106 293 nbx 7 20 -1e+37 1e+37 0 0 empty ppg-grn ppg-grn 0 -8
0 17 -262144 -1 -1 0 256;
#X obj 111 333 nbx 5 20 -1e+37 1e+37 0 0 empty eda eda 0 -8 0 17 -262144
-1 -1 0 256;
#X obj 108 375 nbx 5 20 -1e+37 1e+37 0 0 empty temp temp 0 -8 0 17
-262144 -1 -1 0 256;
#X obj 108 417 nbx 5 20 -1e+37 1e+37 0 0 empty therm therm 0 -8 0 17
-262144 -1 -1 0 256;
#X obj 107 460 nbx 5 20 -1e+37 1e+37 0 0 empty humidity humidity 0
-8 0 17 -262144 -1 -1 0 256;
#X obj 227 147 nbx 5 20 -1e+37 1e+37 0 0 empty acc-x acc-x 0 -8 0 17
-262144 -1 -1 0 256;
#X obj 225 186 nbx 5 20 -1e+37 1e+37 0 0 empty acc-y acc-y 0 -8 0 17
-262144 -1 -1 0 256;
#X obj 227 224 nbx 5 20 -1e+37 1e+37 0 0 empty acc-z acc-z 0 -8 0 17
-262144 -1 -1 0 256;
#X obj 227 267 nbx 5 20 -1e+37 1e+37 0 0 empty gyro-x gyro-x 0 -8 0
17 -262144 -1 -1 0 256;
#X obj 224 306 nbx 5 20 -1e+37 1e+37 0 0 empty gyro-y gyro-y 0 -8 0
17 -262144 -1 -1 0 256;
#N canvas 293 193 1300 260 dancerarrayget-acc 0;
#X obj 312 82 r ddataptr;
#X obj 87 154 array get -s dancerdata oscdata -f emotibit acc-x;
#X obj 115 83 t f b;
#X msg 173 100 1, f 4;
#X obj 88 196 s acc-x;
#X obj 694 82 r ddataptr;
#X obj 497 83 t f b;
#X msg 555 100 1, f 4;
#X obj 469 154 array get -s dancerdata oscdata -f emotibit acc-y;
#X obj 1124 85 r ddataptr;
#X obj 927 86 t f b;
#X msg 985 103 1, f 4;
#X obj 899 157 array get -s dancerdata oscdata -f emotibit acc-z;
#X obj 470 196 s acc-y;
#X obj 900 199 s acc-z;
#X obj 926 36 inlet;
#X obj 496 33 inlet;
#X obj 114 33 inlet;
#X connect 0 0 1 2;
#X connect 1 0 4 0;
#X connect 2 0 1 0;
#X connect 2 1 3 0;
#X connect 3 0 1 1;
#X connect 5 0 8 2;
#X connect 6 0 8 0;
#X connect 6 1 7 0;
#X connect 7 0 8 1;
#X connect 8 0 13 0;
#X connect 9 0 12 2;
#X connect 10 0 12 0;
#X connect 10 1 11 0;
#X connect 11 0 12 1;
#X connect 12 0 14 0;
#X connect 15 0 10 0;
#X connect 16 0 6 0;
#X connect 17 0 2 0;
#X restore 426 576 pd dancerarrayget-acc;
#N canvas 434 230 1603 473 dancerarrayget-gyro 0;
#X obj 312 82 r ddataptr;
#X obj 115 83 t f b;
#X msg 173 100 1, f 4;
#X obj 694 82 r ddataptr;
#X obj 497 83 t f b;
#X msg 555 100 1, f 4;
#X obj 1088 75 r ddataptr;
#X obj 891 76 t f b;
#X msg 949 93 1, f 4;
#X obj 87 154 array get -s dancerdata oscdata -f emotibit gyro-x;
#X obj 863 147 array get -s dancerdata oscdata -f emotibit gyro-z;
#X obj 469 154 array get -s dancerdata oscdata -f emotibit gyro-y;
#X obj 88 196 s gyro-x;
#X obj 470 196 s gyro-y;
#X obj 864 189 s gyro-z;
#X obj 890 26 inlet;
#X obj 496 33 inlet;
#X obj 114 33 inlet;
#X connect 0 0 9 2;
#X connect 1 0 9 0;
#X connect 1 1 2 0;
#X connect 2 0 9 1;
#X connect 3 0 11 2;
#X connect 4 0 11 0;
#X connect 4 1 5 0;
#X connect 5 0 11 1;
#X connect 6 0 10 2;
#X connect 7 0 10 0;
#X connect 7 1 8 0;
#X connect 8 0 10 1;
#X connect 9 0 12 0;
#X connect 10 0 14 0;
#X connect 11 0 13 0;
#X connect 15 0 7 0;
#X connect 16 0 4 0;
#X connect 17 0 1 0;
#X restore 470 625 pd dancerarrayget-gyro;
#N canvas 571 244 1261 294 dancerarrayget-mag 0;
#X obj 312 82 r ddataptr;
#X obj 115 83 t f b;
#X msg 173 100 1, f 4;
#X obj 694 82 r ddataptr;
#X obj 497 83 t f b;
#X msg 555 100 1, f 4;
#X obj 1063 81 r ddataptr;
#X obj 866 82 t f b;
#X msg 924 99 1, f 4;
#X obj 838 153 array get -s dancerdata oscdata -f emotibit mag-z;
#X obj 87 154 array get -s dancerdata oscdata -f emotibit mag-x;
#X obj 469 154 array get -s dancerdata oscdata -f emotibit mag-y;
#X obj 88 196 s mag-x;
#X obj 470 196 s mag-y;
#X obj 839 195 s mag-z;
#X obj 496 33 inlet;
#X obj 114 33 inlet;
#X obj 865 32 inlet;
#X connect 0 0 10 2;
#X connect 1 0 10 0;
#X connect 1 1 2 0;
#X connect 2 0 10 1;
#X connect 3 0 11 2;
#X connect 4 0 11 0;
#X connect 4 1 5 0;
#X connect 5 0 11 1;
#X connect 6 0 9 2;
#X connect 7 0 9 0;
#X connect 7 1 8 0;
#X connect 8 0 9 1;
#X connect 9 0 14 0;
#X connect 10 0 12 0;
#X connect 11 0 13 0;
#X connect 15 0 4 0;
#X connect 16 0 1 0;
#X connect 17 0 7 0;
#X restore 510 675 pd dancerarrayget-mag;
#N canvas 412 150 1475 525 dancerarrayget-ppg 0;
#X obj 312 82 r ddataptr;
#X obj 115 83 t f b;
#X msg 173 100 1, f 4;
#X obj 694 82 r ddataptr;
#X obj 497 83 t f b;
#X msg 555 100 1, f 4;
#X obj 1088 95 r ddataptr;
#X obj 891 96 t f b;
#X msg 949 113 1, f 4;
#X obj 87 154 array get -s dancerdata oscdata -f emotibit ppg-ir;
#X obj 469 154 array get -s dancerdata oscdata -f emotibit ppg-red
;
#X obj 863 167 array get -s dancerdata oscdata -f emotibit ppg-grn
;
#X obj 88 196 s ppg-ir;
#X obj 470 196 s ppg-red;
#X obj 864 209 s ppg-grn;
#X obj 890 46 inlet;
#X obj 496 33 inlet;
#X obj 114 33 inlet;
#X connect 0 0 9 2;
#X connect 1 0 9 0;
#X connect 1 1 2 0;
#X connect 2 0 9 1;
#X connect 3 0 10 2;
#X connect 4 0 10 0;
#X connect 4 1 5 0;
#X connect 5 0 10 1;
#X connect 6 0 11 2;
#X connect 7 0 11 0;
#X connect 7 1 8 0;
#X connect 8 0 11 1;
#X connect 9 0 12 0;
#X connect 10 0 13 0;
#X connect 11 0 14 0;
#X connect 15 0 7 0;
#X connect 16 0 4 0;
#X connect 17 0 1 0;
#X restore 341 494 pd dancerarrayget-ppg;
#N canvas 128 183 1636 286 dancerarrayget-other 0;
#X obj 312 82 r ddataptr;
#X obj 115 83 t f b;
#X msg 173 100 1, f 4;
#X obj 694 82 r ddataptr;
#X obj 497 83 t f b;
#X msg 555 100 1, f 4;
#X obj 1055 76 r ddataptr;
#X obj 858 77 t f b;
#X msg 916 94 1, f 4;
#X obj 87 154 array get -s dancerdata oscdata -f emotibit eda;
#X obj 88 196 s eda;
#X obj 469 154 array get -s dancerdata oscdata -f emotibit temp;
#X obj 470 196 s temp;
#X obj 830 148 array get -s dancerdata oscdata -f emotibit therm;
#X obj 831 190 s therm;
#X obj 1411 78 r ddataptr;
#X obj 1214 79 t f b;
#X msg 1272 96 1, f 4;
#X obj 1186 150 array get -s dancerdata oscdata -f emotibit humidity
;
#X obj 1187 192 s humidity;
#X obj 1213 29 inlet;
#X obj 857 27 inlet;
#X obj 496 33 inlet;
#X obj 114 33 inlet;
#X connect 0 0 9 2;
#X connect 1 0 9 0;
#X connect 1 1 2 0;
#X connect 2 0 9 1;
#X connect 3 0 11 2;
#X connect 4 0 11 0;
#X connect 4 1 5 0;
#X connect 5 0 11 1;
#X connect 6 0 13 2;
#X connect 7 0 13 0;
#X connect 7 1 8 0;
#X connect 8 0 13 1;
#X connect 9 0 10 0;
#X connect 11 0 12 0;
#X connect 13 0 14 0;
#X connect 15 0 18 2;
#X connect 16 0 18 0;
#X connect 16 1 17 0;
#X connect 17 0 18 1;
#X connect 18 0 19 0;
#X connect 20 0 16 0;
#X connect 21 0 7 0;
#X connect 22 0 4 0;
#X connect 23 0 1 0;
#X restore 375 535 pd dancerarrayget-other;
#X obj 366 439 t f f f f f f f f f f f f f f f f;
#X obj 326 18 r ddcurframe;
#X obj 226 345 nbx 5 20 -1e+37 1e+37 0 0 empty gyro-z gyro-z 0 -8 0
17 -262144 -1 -1 0 256;
#X obj 224 384 nbx 5 20 -1e+37 1e+37 0 0 empty mag-x mag-x 0 -8 0 17
-262144 -1 -1 0 256;
#X obj 224 422 nbx 5 20 -1e+37 1e+37 0 0 empty mag-y mag-y 0 -8 0 17
-262144 -1 -1 0 256;
#X obj 222 460 nbx 5 20 -1e+37 1e+37 0 0 empty mag-z mag-z 0 -8 0 17
-262144 -1 -1 0 256;
#X obj 112 154 tgl 27 0 dd-shownum empty show 44 11 0 15 -262144 -1
-1 1 1;
#X obj 363 62 spigot;
#X obj 460 18 r dd-shownum;
#X obj 120 26 loadbang;
#X msg 120 51 1;
#X obj 363 87 t f f;
#X obj 409 113 / 1000;
#X obj 409 138 i;
#X obj 409 163 + 1;
#X obj 411 196 change;
#X msg 529 300 traverse pd-dancerdatapatch;
#X obj 435 402 s ddataptr;
#X obj 395 309 util/dkfor;
#X obj 523 96 r vodataloaded;
#X msg 523 121 999999;
#X obj 430 256 t f b b;
#X obj 411 221 moses 20;
#X msg 395 334 next;
#X obj 358 187 % 1000;
#X obj 395 359 pointer;
#X msg 479 360 next;
#X connect 17 0 15 0;
#X connect 17 1 15 1;
#X connect 17 2 15 2;
#X connect 17 3 16 0;
#X connect 17 4 16 1;
#X connect 17 5 16 2;
#X connect 17 6 16 3;
#X connect 17 7 12 0;
#X connect 17 8 12 1;
#X connect 17 9 12 2;
#X connect 17 10 13 0;
#X connect 17 11 13 1;
#X connect 17 12 13 2;
#X connect 17 13 14 0;
#X connect 17 14 14 1;
#X connect 17 15 14 2;
#X connect 18 0 24 0;
#X connect 24 0 28 0;
#X connect 25 0 24 1;
#X connect 26 0 27 0;
#X connect 27 0 23 0;
#X connect 28 0 41 0;
#X connect 28 1 29 0;
#X connect 29 0 30 0;
#X connect 30 0 31 0;
#X connect 31 0 32 0;
#X connect 32 0 39 0;
#X connect 33 0 42 0;
#X connect 35 0 40 0;
#X connect 36 0 37 0;
#X connect 37 0 31 0;
#X connect 38 0 35 0;
#X connect 38 1 43 0;
#X connect 38 2 33 0;
#X connect 39 0 38 0;
#X connect 40 0 42 0;
#X connect 41 0 17 0;
#X connect 42 0 34 0;
#X connect 43 0 42 0;
#X coords 0 -1 1 1 220 400 1 100 100;
#X restore 261 47 pd datavis;
#N canvas 754 221 966 553 oscsender 0;
#X obj 111 124 tgl 27 0 sendosctgl empty send-osc 44 11 0 15 -262144
-1 -1 0 1;
#X obj 278 147 r sendosctgl;
#X obj 108 269 spigot;
#X obj 61 369 list prepend send;
#X obj 61 394 list trim;
#X obj 126 490 netsend -u -b;
#X obj 278 172 t f f;
#X obj 295 218 sel 1 0, f 18;
#X msg 253 382 connect localhost \$1;
#X msg 301 443 disconnect;
#X obj 110 172 nbx 7 20 -1e+37 1e+37 0 0 oscoutport empty osc-out-port
0 -8 0 17 -262144 -1 -1 5000 256;
#X obj 259 272 v oscoutport;
#X obj 170 43 loadbang;
#X msg 170 68 5000;
#N canvas 445 142 1195 553 ddatagetter 0;
#X obj 431 53 r ddataptr;
#X obj 252 148 get emotibit ppg-ir ppg-red ppg-grn eda temp therm humidity
acc-x acc-y acc-z gyro-x gyro-y gyro-z mag-x mag-y mag-z, f 94;
#X obj 242 117 element dancerdata oscdata;
#X obj 164 40 r ddcurframe;
#X obj 164 65 t f f;
#X obj 164 90 + 1;
#X obj 104 302 oscformat frame;
#X obj 236 243 oscformat PPG:IR;
#X obj 281 283 oscformat PPG:RED;
#X obj 310 319 oscformat PPG:GRN;
#X obj 308 203 oscformat EDA;
#X obj 370 242 oscformat TEMP;
#X obj 418 278 oscformat THERM;
#X obj 467 319 oscformat HUMIDITY;
#X obj 521 246 oscformat ACC:X;
#X obj 573 273 oscformat ACC:Y;
#X obj 609 322 oscformat ACC:Z;
#X obj 659 243 oscformat GYRO:X;
#X obj 723 278 oscformat GYRO:Y;
#X obj 747 319 oscformat GYRO:Z;
#X obj 804 238 oscformat MAG:X;
#X obj 866 269 oscformat MAG:Y;
#X obj 892 314 oscformat MAG:Z;
#X obj 274 427 outlet;
#X obj 266 68 % 1000;
#X connect 0 0 2 1;
#X connect 1 0 7 0;
#X connect 1 1 8 0;
#X connect 1 2 9 0;
#X connect 1 3 10 0;
#X connect 1 4 11 0;
#X connect 1 5 12 0;
#X connect 1 6 13 0;
#X connect 1 7 14 0;
#X connect 1 8 15 0;
#X connect 1 9 16 0;
#X connect 1 10 17 0;
#X connect 1 11 18 0;
#X connect 1 12 19 0;
#X connect 1 13 20 0;
#X connect 1 14 21 0;
#X connect 1 15 22 0;
#X connect 2 0 1 0;
#X connect 3 0 4 0;
#X connect 4 0 5 0;
#X connect 4 1 24 0;
#X connect 5 0 6 0;
#X connect 6 0 23 0;
#X connect 7 0 23 0;
#X connect 8 0 23 0;
#X connect 9 0 23 0;
#X connect 10 0 23 0;
#X connect 11 0 23 0;
#X connect 12 0 23 0;
#X connect 13 0 23 0;
#X connect 14 0 23 0;
#X connect 15 0 23 0;
#X connect 16 0 23 0;
#X connect 17 0 23 0;
#X connect 18 0 23 0;
#X connect 19 0 23 0;
#X connect 20 0 23 0;
#X connect 21 0 23 0;
#X connect 22 0 23 0;
#X connect 24 0 2 0;
#X restore 103 221 pd ddatagetter;
#X connect 1 0 6 0;
#X connect 2 0 3 0;
#X connect 3 0 4 0;
#X connect 4 0 5 0;
#X connect 6 0 2 1;
#X connect 6 1 7 0;
#X connect 7 0 11 0;
#X connect 7 1 9 0;
#X connect 8 0 5 0;
#X connect 9 0 5 0;
#X connect 11 0 8 0;
#X connect 12 0 13 0;
#X connect 13 0 10 0;
#X connect 14 0 2 0;
#X coords 0 -1 1 1 150 100 1 100 100;
#X restore 263 454 pd oscsender;
#X obj 60 12 tgl 27 0 ddunixwin empty unix/win 44 11 0 15 -262144 -1
-1 0 1;
#N canvas 350 153 1374 785 vidplayer 0;
#X obj 989 27 declare -lib Gem;
#X text 638 30 Example:;
#X obj 636 57 gemhead;
#X obj 679 427 bng 15 250 50 0 empty empty end_reached 20 7 0 10 -262144
-1 -1;
#X obj 420 380 openpanel;
#X msg 482 457 open \$1;
#X msg 776 191 auto \$1;
#X obj 636 331 pix_movie;
#X obj 721 455 unpack f f f f;
#X obj 630 431 t b l;
#X msg 305 630 range 0 \$1;
#X obj 597 578 rectangle 8 4.5;
#X obj 439 415 t a a;
#X obj 475 527 s ddatabasename;
#X obj 435 550 s ddatapath;
#X obj 431 490 util/pdkl-pathparts;
#X obj 938 551 util/dkrdiv 1000;
#X obj 1080 602 util/dkvanctr;
#X obj 800 126 r ddplay;
#X obj 1051 256 r ddplay;
#X obj 1148 404 t f f;
#X obj 1181 449 r ddmovieloaded;
#X obj 1114 290 r ddmetroval;
#X obj 623 506 s ddmovieloaded;
#X obj 692 294 r ddframeseek;
#X obj 1148 379 r ddframeseek;
#X obj 109 275 hsl 512 15 0 4449 0 0 ddframeseek ddvidseek seek -2
-8 0 12 -262144 -1 -1 0 1;
#X obj 305 655 s ddvidseek;
#X obj 419 337 r ddopenbang;
#X obj 106 225 bng 27 250 50 0 ddopenbang empty load-movie 37 13 0
15 -262144 -1 -1;
#X obj 253 150 nbx 7 20 -1e+37 1e+37 0 0 empty ddnumframes numframes
0 -8 0 17 -262144 -1 -1 4449 256;
#X obj 498 148 nbx 7 20 -1e+37 1e+37 0 0 empty ddwidth width 0 -8 0
17 -262144 -1 -1 1280 256;
#X obj 497 187 nbx 7 20 -1e+37 1e+37 0 0 empty ddheight height 0 -8
0 17 -262144 -1 -1 720 256;
#X obj 764 546 s ddwidth;
#X obj 794 501 s ddheight;
#X symbolatom 335 109 40 0 0 0 file ddatabasename -;
#X obj 374 149 nbx 7 20 -1e+37 1e+37 0 0 empty ddcurframe cur_frame
0 -8 0 17 -262144 -1 -1 0 256;
#X obj 253 188 nbx 7 20 -1e+37 1e+37 0 0 empty ddfps fps 0 -8 0 17
-262144 -1 -1 24 256;
#X obj 106 145 tgl 27 0 ddplay empty play 44 11 0 15 -262144 -1 -1
0 1;
#X obj 965 471 s ddfps;
#X obj 937 517 r ddfps;
#X obj 755 596 s ddnumframes;
#X obj 1113 528 r ddnumframes;
#X obj 303 603 r ddnumframes;
#X obj 413 600 r ddcurframe;
#X msg 413 625 set \$1;
#X obj 413 650 s ddvidseek;
#X obj 938 576 s ddmetroval;
#X obj 1081 334 metro;
#X obj 155 501 gemwin;
#X msg 27 479 0 \, destroy;
#X msg 102 418 create \, 1;
#X text 194 358 (stop rendering and);
#X obj 104 186 tgl 27 0 ddshowscreen empty show-screen 44 11 0 15 -262144
-1 -1 0 1;
#X obj 37 315 r ddshowscreen;
#X msg 217 443 dimen 640 360 \, buffer 2;
#X obj 230 411 loadbang;
#X obj 60 364 sel 0 1;
#X obj 1136 679 s ddcurframe;
#X connect 2 0 7 0;
#X connect 4 0 12 0;
#X connect 5 0 7 0;
#X connect 6 0 7 0;
#X connect 7 0 11 0;
#X connect 7 1 9 0;
#X connect 7 2 3 0;
#X connect 8 0 41 0;
#X connect 8 1 33 0;
#X connect 8 2 34 0;
#X connect 8 3 39 0;
#X connect 9 0 23 0;
#X connect 9 1 8 0;
#X connect 10 0 27 0;
#X connect 12 0 5 0;
#X connect 12 1 15 0;
#X connect 15 0 14 0;
#X connect 15 1 13 0;
#X connect 16 0 47 0;
#X connect 17 0 58 0;
#X connect 18 0 6 0;
#X connect 19 0 48 0;
#X connect 20 0 17 0;
#X connect 20 1 58 0;
#X connect 21 0 17 3;
#X connect 22 0 48 1;
#X connect 24 0 7 1;
#X connect 25 0 20 0;
#X connect 28 0 4 0;
#X connect 40 0 16 0;
#X connect 42 0 17 1;
#X connect 43 0 10 0;
#X connect 44 0 45 0;
#X connect 45 0 46 0;
#X connect 48 0 17 0;
#X connect 50 0 49 0;
#X connect 51 0 49 0;
#X connect 54 0 57 0;
#X connect 55 0 49 0;
#X connect 56 0 55 0;
#X connect 57 0 50 0;
#X connect 57 1 51 0;
#X coords 0 -1 1 1 530 200 1 100 100;
#X restore 490 49 pd vidplayer;
