#N canvas 598 150 770 277 12;
#N canvas 425 172 1201 705 oscreceiver 0;
#X obj 108 176 tgl 27 0 ddosc-printrcv empty print 44 11 0 15 -262144
-1 -1 0 1;
#X obj 114 223 nbx 7 20 -1e+37 1e+37 0 0 ddosc-inport empty osc-in-port
0 -8 0 17 -262144 -1 -1 5000 256;
#X obj 44 20 loadbang;
#X msg 44 45 5000;
#X obj 197 127 hradio 20 1 0 2 ddosc-udptcp empty udp/tcp 0 -8 0 12
-262144 -1 -1 0;
#X symbolatom 128 257 15 0 0 0 ip - ddosc-ip;
#X msg 212 70 0;
#X msg 111 47 symbol 127.0.0.1;
#N canvas 648 126 900 736 ddosc-guimanager 0;
#X obj 94 484 netreceive -u -b;
#X obj 168 206 list prepend;
#X obj 183 274 route 0 1, f 35;
#X obj 306 483 netreceive -b;
#X obj 259 166 r ddosc-udptcp;
#X obj 178 96 list append;
#X obj 175 26 r ddosc-inport;
#X obj 295 24 r ddosc-ip;
#X obj 139 150 list append;
#X obj 117 65 r dd-rcvosctgl;
#X msg 117 404 listen 0;
#X msg 304 424 listen 0;
#X obj 183 317 route 0 1;
#X obj 318 312 route 0 1;
#X obj 194 619 outlet;
#X msg 214 401 listen \$1;
#X obj 220 353 t l b;
#X obj 380 379 list prepend listen;
#X obj 380 404 list trim;
#X obj 345 346 t l b;
#X connect 0 0 14 0;
#X connect 1 0 2 0;
#X connect 2 0 12 0;
#X connect 2 1 13 0;
#X connect 3 0 14 0;
#X connect 4 0 1 1;
#X connect 5 0 8 1;
#X connect 6 0 5 0;
#X connect 7 0 5 1;
#X connect 8 0 1 0;
#X connect 9 0 8 0;
#X connect 10 0 0 0;
#X connect 10 0 3 0;
#X connect 11 0 0 0;
#X connect 11 0 3 0;
#X connect 12 0 10 0;
#X connect 12 1 16 0;
#X connect 13 0 11 0;
#X connect 13 1 19 0;
#X connect 15 0 0 0;
#X connect 16 0 15 0;
#X connect 16 1 11 0;
#X connect 17 0 18 0;
#X connect 18 0 3 0;
#X connect 19 0 17 0;
#X connect 19 1 10 0;
#X restore 126 297 pd ddosc-guimanager;
#X obj 146 399 route frame PPG:IR PPG:RED PPG:GRN EDA TEMP THERM HUMIDITY
ACC:X ACC:Y ACC:Z GYRO:X GYRO:Y GYRO:Z MAG:X MAG:Y MAG:Z;
#X obj 139 328 oscparse;
#X obj 146 461 s ddosc-frame;
#X obj 167 501 s ddosc-ppg-ir;
#X obj 188 543 s ddosc-ppg-red;
#X obj 210 577 s ddosc-ppg-grn;
#X obj 254 467 s ddosc-eda;
#X obj 280 508 s ddosc-temp;
#X obj 321 550 s ddosc-therm;
#X obj 345 594 s ddosc-humidity;
#X obj 353 464 s ddosc-acc-x;
#X obj 384 506 s ddosc-acc-y;
#X obj 450 551 s ddosc-acc-z;
#X obj 464 467 s ddosc-gyro-x;
#X obj 523 517 s ddosc-gyro-y;
#X obj 566 554 s ddosc-gyro-z;
#X obj 581 470 s ddosc-mag-x;
#X obj 643 506 s ddosc-mag-y;
#X obj 667 537 s ddosc-mag-z;
#X obj 109 143 tgl 27 0 dd-rcvosctgl empty rcv-osc 44 11 0 15 -262144
-1 -1 0 1;
#X obj 449 196 r ddosc-printrcv;
#X obj 278 350 spigot;
#X obj 278 375 print;
#X connect 2 0 3 0;
#X connect 2 0 6 0;
#X connect 2 0 7 0;
#X connect 3 0 1 0;
#X connect 6 0 4 0;
#X connect 7 0 5 0;
#X connect 8 0 10 0;
#X connect 9 0 11 0;
#X connect 9 1 12 0;
#X connect 9 2 13 0;
#X connect 9 3 14 0;
#X connect 9 4 15 0;
#X connect 9 5 16 0;
#X connect 9 6 17 0;
#X connect 9 7 18 0;
#X connect 9 8 19 0;
#X connect 9 9 20 0;
#X connect 9 10 21 0;
#X connect 9 11 22 0;
#X connect 9 12 23 0;
#X connect 9 13 24 0;
#X connect 9 14 25 0;
#X connect 9 15 26 0;
#X connect 9 16 27 0;
#X connect 10 0 9 0;
#X connect 10 0 30 0;
#X connect 29 0 30 1;
#X connect 30 0 31 0;
#X coords 0 -1 1 1 150 180 1 100 100;
#X restore 17 57 pd oscreceiver;
#X text 592 154 ddosc-mag-x;
#X text 591 179 ddosc-mag-y;
#X text 591 206 ddosc-mag-z;
#X text 498 152 ddosc-gyro-x;
#X text 497 177 ddosc-gyro-y;
#X text 497 204 ddosc-gyro-z;
#X text 405 152 ddosc-acc-x;
#X text 404 177 ddosc-acc-y;
#X text 404 204 ddosc-acc-z;
#X text 177 150 ddosc-ppg-ir;
#X text 176 175 ddosc-ppg-red;
#X text 176 202 ddosc-ppg-grn;
#X text 294 151 ddosc-eda;
#X text 293 176 ddosc-temp;
#X text 293 203 ddosc-therm;
#X text 293 227 ddosc-humidity;
#X text 176 108 OUTGOING SENDS;
